# xmcd
#
# Track frame offsets: 
#        150
#        16204
#        32105
#        49900
#        69360
#        85031
#        106929
#        125797
#        143878
#        163540
#        180520
#        197814
#        220590
#
# Disc length: 3185 seconds
#
# Revision: 0
# Processed by: cddbd v1.5.2PL0 Copyright (c) Steve Scherf et al.
# Submitted via: ExactAudioCopy v1.1
#
DISCID=ae0c6f0d
DTITLE=Mick Clarke - Diggin' Down
DYEAR=2017
DGENRE=Electric Blues
TTITLE0=Dry Road Blues
TTITLE1=Any Place Is Paradise
TTITLE2=Smokestack Lightning
TTITLE3=Noodle Bar
TTITLE4=Rhumbatism
TTITLE5=Hard Hat
TTITLE6=Yes It Is
TTITLE7=Crack In The Wall
TTITLE8=Bluestring
TTITLE9=Zeitgeist Boogie
TTITLE10=Sweet Dreams
TTITLE11=Find You
TTITLE12=Diggin' Down
EXTD=
EXTT0=
EXTT1=
EXTT2=
EXTT3=
EXTT4=
EXTT5=
EXTT6=
EXTT7=
EXTT8=
EXTT9=
EXTT10=
EXTT11=
EXTT12=
PLAYORDER=
